<?xml version="1.0" standalone="no"?>
<!DOCTYPE svg PUBLIC "-//W3C//DTD SVG 20010904//EN"
 "http://www.w3.org/TR/2001/REC-SVG-20010904/DTD/svg10.dtd">
<svg version="1.0" xmlns="http://www.w3.org/2000/svg"
 width="313.000000pt" height="313.000000pt" viewBox="0 0 313.000000 313.000000"
 preserveAspectRatio="xMidYMid meet">
<metadata>
Created by potrace 1.11, written by Peter Selinger 2001-2013
</metadata>
<g transform="translate(0.000000,313.000000) scale(0.100000,-0.100000)"
fill="#000000" stroke="none">
<path d="M1907 1660 c-108 -37 -209 -83 -207 -96 0 -5 -12 -12 -27 -15 -16 -3
-60 -24 -98 -46 -39 -23 -72 -37 -74 -32 -1 6 2 23 9 39 20 49 4 52 -73 14
-123 -62 -160 -86 -146 -95 8 -4 10 -11 6 -15 -15 -16 -47 35 -47 75 0 32 -6
44 -37 71 -45 40 -98 63 -130 57 -15 -3 -27 1 -30 9 -3 8 -16 14 -30 14 -22 0
-24 -2 -13 -15 7 -9 10 -18 7 -21 -8 -8 -38 3 -36 13 6 34 0 36 -93 29 -111
-9 -209 -31 -225 -53 -6 -8 -17 -12 -23 -8 -6 4 -24 1 -40 -5 -24 -10 -28 -15
-20 -30 14 -27 13 -28 -26 -36 -24 -4 -39 -3 -44 6 -5 7 -16 9 -30 5 -18 -6
-21 -12 -16 -36 3 -16 15 -42 27 -58 17 -23 19 -33 10 -49 -10 -19 -16 -82 -7
-82 2 0 20 7 40 15 47 20 46 5 -4 -38 -24 -20 -40 -43 -40 -55 0 -28 3 -27 48
3 55 37 62 34 62 -32 0 -62 26 -367 36 -420 5 -24 3 -33 -7 -33 -31 0 -41 -16
-34 -54 7 -36 8 -36 31 -21 13 8 31 15 40 15 15 0 14 -4 -6 -25 -13 -14 -29
-25 -37 -25 -7 0 -13 -6 -13 -14 0 -8 -9 -17 -19 -21 -16 -5 -30 -31 -31 -57
0 -24 169 21 265 70 214 108 404 326 461 530 15 54 20 61 60 80 l43 21 7 -66
c6 -64 6 -67 -20 -85 -33 -25 -36 -77 -6 -96 19 -12 19 -14 5 -42 -20 -38 -19
-43 6 -30 11 7 23 10 25 7 9 -9 32 -255 28 -300 -2 -25 0 -48 5 -51 5 -4 3
-23 -6 -46 -9 -22 -14 -43 -11 -46 3 -3 39 15 79 39 41 25 89 48 107 52 17 3
32 11 32 16 0 14 126 71 220 100 83 26 93 34 85 67 -3 12 -1 22 5 22 5 0 10 5
10 10 0 6 -16 8 -42 4 l-43 -7 27 22 c14 11 33 21 42 21 9 0 16 7 16 16 0 11
-6 13 -19 9 -16 -5 -18 -2 -14 15 l6 21 -54 -21 c-30 -12 -90 -37 -134 -57
-44 -19 -86 -37 -93 -40 -10 -4 -12 24 -10 133 l3 139 140 47 c77 26 143 49
147 50 7 3 30 170 24 175 -1 1 -31 -6 -66 -17 -47 -14 -66 -16 -71 -8 -5 8
-29 2 -80 -20 -40 -18 -74 -30 -77 -28 -2 3 0 31 4 63 l9 58 114 38 c62 20
127 38 143 40 l29 2 48 -190 c27 -104 85 -308 130 -453 44 -144 82 -266 83
-270 1 -4 4 22 7 58 l6 65 19 -50 c11 -27 21 -52 22 -54 2 -1 15 9 31 23 30
28 43 32 43 14 0 -6 11 -1 25 12 21 19 24 30 20 59 l-5 36 17 -33 c12 -23 23
-32 37 -30 17 2 23 15 32 68 20 118 192 655 279 873 6 13 2 17 -14 17 -20 0
-21 4 -15 35 6 34 5 35 -24 35 -35 0 -142 -45 -142 -60 0 -6 -4 -9 -9 -6 -4 3
-32 -3 -62 -13 l-54 -19 -37 -179 c-20 -98 -45 -226 -54 -285 -10 -60 -19
-106 -21 -104 -6 6 -33 159 -62 354 -16 107 -31 195 -33 196 -2 2 -24 6 -50 9
l-47 7 5 -33 c5 -30 5 -31 -10 -13 -9 11 -16 28 -16 38 0 29 -25 21 -54 -17
-28 -36 -50 -47 -40 -20 4 10 0 15 -15 15 -18 0 -20 3 -12 19 9 16 8 18 -12
14 -21 -4 -21 -4 -3 11 10 8 23 17 27 18 5 2 12 24 15 51 8 57 9 57 -109 17z
m714 -153 c-8 -8 -11 -4 -11 14 0 33 14 47 18 19 2 -12 -1 -27 -7 -33z m-1961
-32 c-7 -8 -19 -15 -27 -15 -13 0 -13 3 -3 15 7 8 19 15 27 15 13 0 13 -3 3
-15z m1457 -55 c6 -16 7 -32 3 -35 -10 -6 -30 26 -30 49 0 26 15 18 27 -14z
m469 -17 c-11 -11 -19 6 -11 24 8 17 8 17 12 0 3 -10 2 -21 -1 -24z m-1991 7
c-19 -21 -45 -27 -45 -10 0 11 30 29 49 30 11 0 10 -5 -4 -20z m649 -31 c10
-17 16 -33 13 -35 -9 -9 -47 30 -47 48 0 27 13 22 34 -13z m224 20 c-5 -14
-76 -44 -85 -35 -3 3 5 14 18 25 26 22 73 28 67 10z m-473 -94 c42 -31 59 -82
52 -151 -10 -95 -96 -236 -179 -295 l-31 -23 7 220 c3 120 9 234 13 253 l6 33
49 -5 c31 -4 63 -16 83 -32z m361 10 c-27 -21 -53 -20 -36 0 7 8 22 15 34 15
21 -1 21 -1 2 -15z m464 -574 c0 -10 -24 -21 -43 -21 -7 0 -3 7 7 15 22 17 36
19 36 6z m469 -53 c6 -17 9 -34 6 -36 -8 -8 -34 31 -35 51 0 28 17 19 29 -15z
m-1549 -33 c-14 -16 -40 -20 -40 -6 0 10 17 19 39 20 11 1 11 -2 1 -14z"/>
</g>
</svg>
